<svg xmlns="http://www.w3.org/2000/svg" xmlns:xlink="http://www.w3.org/1999/xlink" id="Layer_1" x="0" y="0" version="1.1" viewBox="0 0 800 220" xml:space="preserve" style="enable-background:new 0 0 800 220"><style type="text/css">.st0{fill:url(#Path_2431_1_)}.st1{fill:url(#Path_2432_1_)}.st2{fill:url(#Path_2433_1_)}.st3{fill:url(#Path_2434_1_)}</style><g id="Group_4051"><linearGradient id="Path_2431_1_" x1="125.449" x2="139.339" y1="-108.518" y2="-111.758" gradientTransform="matrix(55.73 0 0 61.13 -6965.521 6857.8213)" gradientUnits="userSpaceOnUse"><stop offset="0" style="stop-color:#929292"/><stop offset="1" style="stop-color:#777"/></linearGradient><path id="Path_2431" d="M490.1,203.2L415.3,21.9c-0.6-1.7-0.9-3.4-0.9-5.1c-0.1-3.7,1.2-7.3,3.7-10.1 c2.6-2.7,6.2-4.1,9.9-3.9c2.8,0,5.5,0.9,7.7,2.6c2.4,1.7,4.2,4.1,5.3,6.8l71.1,177.4l71.1-177.4c1.1-2.7,3-5,5.3-6.8 c2.2-1.6,4.9-2.5,7.7-2.6c3.7-0.2,7.3,1.2,9.9,3.8c2.5,2.8,3.8,6.4,3.7,10.1c0,1.8-0.3,3.5-0.9,5.1l-74.7,181.3 c-4.2,9.4-10.5,14-18.7,14h-6.6C500.5,217.2,494.3,212.6,490.1,203.2z" class="st0"/><linearGradient id="Path_2432_1_" x1="123.136" x2="141.476" y1="-107.546" y2="-110.826" gradientTransform="matrix(42.21 0 0 60.24 -5160.04 6760.5781)" gradientUnits="userSpaceOnUse"><stop offset="0" style="stop-color:#929292"/><stop offset="1" style="stop-color:#777"/></linearGradient><path id="Path_2432" d="M641.6,211.6c-2.6-2.6-4-6.1-3.9-9.7V18.3c-0.1-3.7,1.3-7.2,3.9-9.9c2.5-2.7,6.1-4.1,9.7-4 h121.4c3.5-0.1,6.8,1.3,9.2,3.9c2.5,2.4,3.9,5.7,3.9,9.2c0.1,3.4-1.3,6.7-3.9,9c-2.5,2.4-5.8,3.7-9.2,3.6H665.3v66.9h96.6 c3.5-0.1,6.8,1.3,9.2,3.9c2.5,2.4,3.9,5.7,3.9,9.2c0.1,3.4-1.3,6.7-3.9,9c-2.4,2.4-5.8,3.7-9.2,3.7h-96.6v67.2h107.4 c3.5-0.1,6.8,1.3,9.2,3.9c2.5,2.4,3.9,5.7,3.9,9.2c0.1,3.4-1.3,6.7-3.9,9c-2.5,2.4-5.8,3.7-9.2,3.7H651.3 C647.6,215.8,644.1,214.4,641.6,211.6z" class="st1"/><linearGradient id="Path_2433_1_" x1="126.243" x2="140.113" y1="-108.947" y2="-112.177" gradientTransform="matrix(55.78 0 0 61.13 -7022.4214 6860.8799)" gradientUnits="userSpaceOnUse"><stop offset="0" style="stop-color:#929292"/><stop offset="1" style="stop-color:#777"/></linearGradient><path id="Path_2433" d="M432.2,198.1L357.5,16.8c-4.2-9.4-10.5-14-18.7-14h-6.6c-8.3,0-14.5,4.6-18.7,14l-32.5,79 h-24.6c-7.4,0-13.4,6-13.4,13.4v0.2c0,7.4,6,13.4,13.4,13.4h13.2l-31,75.3c-0.6,1.7-0.9,3.4-0.9,5.1c-0.1,3.7,1.2,7.3,3.7,10.1 c2.6,2.7,6.2,4.1,9.9,3.9c2.8,0,5.5-0.9,7.7-2.6c2.4-1.8,4.2-4.1,5.3-6.8l34.1-85h23.5c7.4,0,13.4-6,13.4-13.4V109 c0-7.4-6-13.4-13.4-13.4h-12.7l26.3-65.2l71.1,177.4c1.1,2.7,3,5,5.3,6.8c2.2,1.6,4.9,2.5,7.7,2.6c3.7,0.2,7.3-1.2,9.9-3.9 c2.5-2.8,3.8-6.4,3.7-10.1C433.2,201.4,432.9,199.7,432.2,198.1z" class="st2"/><linearGradient id="Path_2434_1_" x1="127.143" x2="141.023" y1="-109.773" y2="-113.013" gradientTransform="matrix(55.78 0 0 61.13 -7088.1597 6858.4189)" gradientUnits="userSpaceOnUse"><stop offset="0" style="stop-color:#929292"/><stop offset="1" style="stop-color:#777"/></linearGradient><path id="Path_2434" d="M208.9,198.1L134.2,16.8c-4.2-9.4-10.5-14-18.8-14h-6.6c-8.3,0-14.5,4.6-18.7,14l-32.5,79H33 c-7.4,0-13.4,6-13.4,13.4v0.2c0.1,7.4,6.1,13.3,13.4,13.3h13.2l-31,75.3c-0.6,1.7-0.9,3.4-0.9,5.1c-0.2,3.7,1.2,7.3,3.7,10.1 c2.6,2.7,6.2,4.1,9.9,3.9c2.8,0,5.5-0.9,7.7-2.6c2.4-1.8,4.2-4.1,5.3-6.8l34.2-85h23.7c7.4,0,13.4-6,13.4-13.4V109 c0-7.4-6-13.4-13.4-13.4H86.1l26.1-65.2l71.1,177.4c1.1,2.7,3,5.1,5.3,6.8c2.2,1.6,4.9,2.5,7.7,2.6c3.7,0.2,7.3-1.2,9.9-3.9 c2.5-2.8,3.8-6.4,3.7-10.1C209.9,201.4,209.6,199.7,208.9,198.1z" class="st3"/></g></svg>